<?xml version="1.0" encoding="utf-8"?>
<!-- Generator: Adobe Illustrator 16.0.0, SVG Export Plug-In . SVG Version: 6.00 Build 0)  -->
<!DOCTYPE svg PUBLIC "-//W3C//DTD SVG 1.1//EN" "http://www.w3.org/Graphics/SVG/1.1/DTD/svg11.dtd">
<svg version="1.1" id="Layer_1" xmlns="http://www.w3.org/2000/svg" xmlns:xlink="http://www.w3.org/1999/xlink" x="0px" y="0px"
	 width="315.779px" height="360.559px" viewBox="0 0 315.779 360.559" enable-background="new 0 0 315.779 360.559"
	 xml:space="preserve">
<g>
	<path fill="#FFFFFF" d="M158.414,0c52.299,29.918,104.379,60.24,156.619,90.277c-9.539,5.5-19.101,10.98-28.619,16.539
		c-42.722-24.52-85.34-49.219-128-73.816C105.605,63.467,52.809,93.957,0,124.424V91.338C52.781,60.853,105.535,30.312,158.414,0z"
		/>
	<path fill="#FFFFFF" d="M158.414,207.58c-7.98-4.643-15.959-9.24-23.959-13.84c-9.561,5.5-19.121,10.959-28.641,16.537
		c17.52,10.121,34.979,20.32,52.6,30.279c52.539-30.104,104.938-60.449,157.365-90.73V116.74
		C263.317,147.007,210.871,177.297,158.414,207.58z"/>
	<path fill="#FFFFFF" d="M158.414,60c34.979,19.918,69.739,40.219,104.619,60.277c-9.539,5.539-19.119,11-28.66,16.58
		c-25.299-14.658-50.66-29.199-75.959-43.857C105.605,123.466,52.809,153.955,0,184.426v-33.097
		C52.777,120.841,105.523,90.299,158.414,60z"/>
	<path fill="#FFFFFF" d="M158.414,267.559c-25.299-14.641-50.639-29.199-75.959-43.84c-9.561,5.48-19.08,11.08-28.641,16.561
		c34.84,20.121,69.641,40.342,104.6,60.279c52.539-30.092,104.937-60.438,157.365-90.721v-33.096
		C263.319,207.012,210.867,237.291,158.414,267.559z"/>
	<path fill="#FFFFFF" d="M158.414,119.9c17.541,10.119,35.101,20.199,52.601,30.379c-9.521,5.562-19.08,11.039-28.642,16.539
		c-7.979-4.6-15.979-9.197-23.959-13.838C105.605,183.465,52.809,213.955,0,244.424v-33.115
		C52.803,180.832,105.598,150.344,158.414,119.9z"/>
	<path fill="#FFFFFF" d="M158.414,327.559c52.451-30.289,104.91-60.566,157.365-90.854v33.121
		c-52.433,30.293-104.874,60.566-157.365,90.73c-52.299-29.918-104.4-60.219-156.621-90.279c9.582-5.461,19.102-11,28.621-16.537
		C73.133,278.26,115.754,302.959,158.414,327.559z"/>
</g>
</svg>
