<?xml version="1.0" standalone="no"?>
<!DOCTYPE svg PUBLIC "-//W3C//DTD SVG 20010904//EN"
 "http://www.w3.org/TR/2001/REC-SVG-20010904/DTD/svg10.dtd">
<svg version="1.0" xmlns="http://www.w3.org/2000/svg"
 width="200.000000pt" height="200.000000pt" viewBox="0 0 200.000000 200.000000"
 preserveAspectRatio="xMidYMid meet">

<g transform="translate(0.000000,200.000000) scale(0.100000,-0.100000)"
fill="#000000" stroke="none">
<path d="M310 1253 c28 -35 114 -101 165 -125 l40 -19 -47 7 c-28 4 -48 2 -48
-3 0 -20 143 -113 174 -113 30 0 11 -12 -31 -20 l-38 -7 68 -33 c55 -26 77
-32 112 -27 37 4 45 1 50 -14 7 -21 83 -89 99 -89 6 0 -3 13 -20 28 -38 32
-68 78 -57 85 4 3 36 11 71 17 34 7 62 16 62 19 0 18 -42 91 -57 100 -14 8
-10 10 22 11 61 0 63 -4 56 -100 -6 -78 -5 -86 14 -102 19 -16 21 -16 36 0 13
14 15 31 9 92 -3 41 -5 80 -3 85 5 14 72 34 79 24 3 -5 1 -9 -3 -9 -5 0 -21
-23 -36 -50 -31 -56 -34 -52 61 -72 l62 -13 -26 -41 c-15 -23 -38 -48 -53 -57
-17 -11 -20 -17 -10 -17 20 0 96 65 104 89 4 14 16 17 53 17 50 -1 176 49 166
65 -3 5 -22 9 -42 10 l-37 1 30 10 c38 14 126 71 151 99 l19 22 -55 -7 -55 -6
40 18 c52 25 137 90 166 127 22 26 22 28 4 23 -11 -3 -118 -31 -238 -62 l-217
-58 -33 28 c-47 40 -89 54 -159 54 -69 0 -130 -23 -162 -59 -11 -11 -25 -21
-31 -21 -7 0 -115 27 -240 60 -125 33 -229 60 -232 60 -2 0 5 -12 17 -27z
m699 -73 c18 -5 44 -16 57 -25 20 -13 22 -19 14 -35 -10 -18 -20 -20 -93 -17
-53 2 -91 -1 -109 -10 -26 -12 -28 -11 -42 15 -14 27 -14 29 16 46 58 35 102
42 157 26z m-432 -76 c-3 -3 -12 -4 -19 -1 -8 3 -5 6 6 6 11 1 17 -2 13 -5z
m786 -1 c-7 -2 -19 -2 -25 0 -7 3 -2 5 12 5 14 0 19 -2 13 -5z m-706 -9 c-3
-3 -12 -4 -19 -1 -8 3 -5 6 6 6 11 1 17 -2 13 -5z m626 -1 c-7 -2 -19 -2 -25
0 -7 3 -2 5 12 5 14 0 19 -2 13 -5z m-556 -9 c-3 -3 -12 -4 -19 -1 -8 3 -5 6
6 6 11 1 17 -2 13 -5z m480 0 c-3 -3 -12 -4 -19 -1 -8 3 -5 6 6 6 11 1 17 -2
13 -5z m-400 -10 c-3 -3 -12 -4 -19 -1 -8 3 -5 6 6 6 11 1 17 -2 13 -5z m326
-1 c-7 -2 -19 -2 -25 0 -7 3 -2 5 12 5 14 0 19 -2 13 -5z m-420 -80 c-7 -2
-21 -2 -30 0 -10 3 -4 5 12 5 17 0 24 -2 18 -5z m90 0 c-7 -2 -21 -2 -30 0
-10 3 -4 5 12 5 17 0 24 -2 18 -5z m435 0 c-10 -2 -26 -2 -35 0 -10 3 -2 5 17
5 19 0 27 -2 18 -5z"/>
</g>
</svg>
